<?xml version="1.0" encoding="utf-8"?>
<!-- Generator: Adobe Illustrator 17.0.0, SVG Export Plug-In . SVG Version: 6.00 Build 0)  -->
<!DOCTYPE svg PUBLIC "-//W3C//DTD SVG 1.1//EN" "http://www.w3.org/Graphics/SVG/1.1/DTD/svg11.dtd">
<svg version="1.1" id="Layer_1" xmlns="http://www.w3.org/2000/svg" xmlns:xlink="http://www.w3.org/1999/xlink" x="0px" y="0px"
	 width="200px" height="200px" viewBox="0 0 200 200" enable-background="new 0 0 200 200" xml:space="preserve">
<g>
	<path fill="#1D1D1B" d="M104.968,191.231c-0.509,1.901-15.23-0.38-33.362-5.102c-0.763-0.196-1.539-0.404-2.315-0.612
		c-0.784-0.21-1.552-0.416-2.319-0.63c-18.057-4.974-31.953-10.362-31.444-12.263c0.514-1.917,15.345,0.393,33.568,5.157
		c0.699,0.179,1.404,0.368,2.117,0.559c0.705,0.189,1.41,0.378,2.105,0.572C91.482,183.899,105.482,189.314,104.968,191.231z"/>
	<path fill="#1D1D1B" d="M71.606,186.128c-0.763-0.196-1.539-0.404-2.315-0.612c-0.784-0.21-1.552-0.416-2.319-0.63
		c0.734-2.486,1.438-4.861,2.125-7.105c4.151-13.718,7.378-22.625,8.265-22.387s-0.779,9.562-4.044,23.518
		C72.79,181.2,72.213,183.609,71.606,186.128z"/>
	<path fill="#1D1D1B" d="M90.414,116.157c-1.108,4.135-2.21,8.152-3.291,11.996c-6.273,22.429-11.686,38.891-12.802,38.591
		c-1.125-0.301,2.419-17.264,8.193-39.827c0.994-3.868,2.048-7.898,3.156-12.033c4.376-16.332,8.631-30.787,11.699-40.016
		l2.923,0.783C98.332,85.179,94.79,99.825,90.414,116.157z"/>
	<polygon fill="#1D1D1B" points="166.19,93.31 123.207,136.973 46.869,116.518 31.476,57.214 	"/>
	<path fill="none" stroke="#1D1D1B" stroke-width="5" stroke-miterlimit="10" d="M189.046,54.356
		c-2.656-3.62-9.508-4.207-15.304-1.311c-5.796,2.896-7.124,6.847-7.753,10.782l0.587,2.563c0.893,2.149,2.131,3.053,2.538,5.208
		c0.795,4.067,0.717,8.129-0.34,12.074c-0.335,1.251-0.759,2.454-1.268,3.625c-0.79,1.809-1.582,2.734-2.77,4.351L33.566,56.925
		c-0.221-1.995-0.44-3.616-0.22-5.577c0.145-1.269,0.379-2.522,0.714-3.773c1.057-3.944,3.02-7.502,5.742-10.626
		c1.43-1.663,2.065-2.349,3.913-3.764l1.109-1.361c4.335-5.102,4.547-7.655,0.976-13.061S36,10.439,31.89,12.246l-2.546,1.575
		c-1.31,1.593-3.198,3.025-4.35,4.728c-4.209,6.173-7.42,13.055-9.426,20.54c-11.057,41.266,18.807,85.119,66.711,97.954
		c47.896,12.834,95.693-10.209,106.75-51.476c2.006-7.485,2.666-15.05,2.107-22.501c-0.146-2.051-0.386-4.102-0.732-6.139
		L189.046,54.356z"/>
</g>
</svg>
